# xmcd CD database file
#
# Track frame offsets:
#	150
#	23105
#	42614
#	63231
#	90948
#	105055
#
# Disc length: 1817 seconds
#
# Revision: 0
# Processed by: cddbd v1.5.2PL0 Copyright (c) Steve Scherf et al.
# Submitted via: CDex 1.70beta2
#
DISCID=3a071706
DTITLE=ensemble Sidewalk Cafe - Musette Cinq
DYEAR=2006
DGENRE=Jazz
TTITLE0=Swing Gitan
TTITLE1=Dervish
TTITLE2=Bistro
TTITLE3=July
TTITLE4=Musette Cinq
TTITLE5=Sans Souci
EXTD=YEAR: 2006
EXTT0=
EXTT1=
EXTT2=
EXTT3=
EXTT4=
EXTT5=
PLAYORDER=
